<?xml version="1.0" encoding="utf-8"?>
<!-- Generator: Adobe Illustrator 23.0.1, SVG Export Plug-In . SVG Version: 6.00 Build 0)  -->
<svg version="1.1" id="Layer_1" xmlns="http://www.w3.org/2000/svg" xmlns:xlink="http://www.w3.org/1999/xlink" x="0px" y="0px"
	 viewBox="0 0 1168.67 234.95" style="enable-background:new 0 0 1168.67 234.95;" xml:space="preserve">
<style type="text/css">
	.st0{fill:#004C80;}
	.st1{fill:url(#SVGID_1_);}
	.st2{fill:url(#SVGID_2_);}
</style>
<path class="st0" d="M484.55,167.43H326.74c0,0,91.17-118.01,95.72-123.16h-60.37l4.98-30.03h146.44l-96.74,122.86h74.76
	L484.55,167.43z"/>
<path class="st0" d="M647.3,14.24l-41.14,68.6l-19.23-68.6h-65.16l44.49,130.67c0,0-18.83,34.28-25.2,39.74
	c-6.67,5.44-14.95,6.34-23.75,6.34c-6.35,0-12.63-0.13-19.07-0.25v33.61c4.7,1.6,10.66,2.34,17.9,2.34
	c19.11,0,35.19-4.53,47.93-13.95c6.67-4.83,30.34-40.15,43.69-62.91l82.62-135.59H647.3z"/>
<linearGradient id="SVGID_1_" gradientUnits="userSpaceOnUse" x1="1081.2559" y1="19.2659" x2="1054.7415" y2="219.1439">
	<stop  offset="0" style="stop-color:#F26F1D"/>
	<stop  offset="1" style="stop-color:#B02930"/>
</linearGradient>
<path class="st1" d="M989.13,195.45c0,0,14.32,0.04,20.69,0.04c18.51,0,34.48-33.03,34.48-33.03l-40.76-147.32h39.44l28.36,96.29
	l56.57-96.29h32.16l-93.27,152.29c-28.36,39.05-34.61,42.65-56.84,42.34c-9.4-0.13-20.08,0.32-20.08,0.32L989.13,195.45z"/>
<path class="st0" d="M68.89,103.35c-0.95,5.16-1.52,10.4-1.52,16.17c0.32,19.42,18.56,22.73,38.92,22.73
	c15.59,0,35.84-6.97,49.84-12.43l-11.98,28.51c-14.64,8.49-35.96,12.74-63.96,12.74c-45.5,0-68.73-21.84-68.73-57.03
	c0-32.46,10.82-59.46,32.45-80.69C60.16,17.87,82.76,9.98,111.71,9.98c39.77,0,59.5,16.08,59.5,48.23c0,10.92-4.07,29.66-8.84,45.13
	H68.89z M130.79,79.09c7.91-21.98-5.05-34.61-22.48-34.61c-18.98,0-30.57,11.87-35.55,34.61H130.79z M217.69,168.78
	c-16.97,0-30.77-2.73-38.91-11.12c-8.18-8.43-14.07-22.16-11.36-35.87c5.8-29.32,31.47-39.53,67.44-43.96
	c35.97-4.43,41.94-7.58,44.21-16.04c3.07-11.44-9.39-19.17-25.01-19.58c-34.94-0.91-67.96,19.58-67.96,19.58l20.97-37.52
	c19.44-9.31,43.47-11.63,66.4-11.63c42.88,0,69.6,19.93,62.15,57.63l-19.26,97.43h-57.5l2.84-14.39
	C248,165.11,236.15,168.78,217.69,168.78z M248.57,101.38c-9.94,1.13-25.65,4.86-30.88,7.78c-4.52,2.52-7.39,7.13-8.76,14.09
	c-0.97,4.89,0.15,8.78,3.42,11.87c3.4,3.21,8.49,4.77,15.55,4.77c9.86,0,26.41-4.68,34.05-10.82c7.75-6.23,7.91-13.91,9.8-23.48
	l1.53-7.76L248.57,101.38z"/>
<linearGradient id="SVGID_2_" gradientUnits="userSpaceOnUse" x1="850.7101" y1="2.7532" x2="818.2823" y2="247.2096">
	<stop  offset="0" style="stop-color:#F26F1D"/>
	<stop  offset="1" style="stop-color:#B02930"/>
</linearGradient>
<path class="st2" d="M708.94,226.69h-45.33l47.13-211.85h43.21L750,33.64c10.62-13.04,29.43-22.45,48.84-22.45
	c28.82,0,44.29,17.29,44.29,47.63c0,13.95-2.12,28.82-6.07,44.29c-3.94,15.47-10.62,28.82-19.42,40.04
	c-14.86,18.5-34.89,27.6-60.07,27.6c-14.86,0-29.73-6.67-34.58-14.26L708.94,226.69z M726.64,140.13
	c4.85,5.16,12.74,7.89,23.36,7.89c17.29,0,29.73-6.67,37.92-20.02c4.85-8.19,8.8-18.51,11.53-30.95
	c2.73-12.44,4.25-23.36,4.25-33.07c0-19.11-8.49-28.82-25.18-28.82c-10.31,0-20.63,3.64-30.64,11.22L726.64,140.13z M979.66,163.87
	l-44.09-0.2l2.27-15.66c-15.72,18.17-30.97,19.5-50.85,19.42c-17.14-0.08-29.75-4.05-37.81-12.15c-8.07-8.1-10.75-18.81-8.04-32.14
	c5.81-28.64,29.46-38.99,67.26-43.54c46.23-5.56,46.53-10.24,50.53-22.23c4.8-14.4-7.04-22.2-28.29-22.2
	c-20.78,0-46.47,10.52-65.68,22.96l10.5-27.33c20.31-9.48,42.99-14.61,67.06-14.61c44.05,0,63.66,17.18,57.17,49.03L979.66,163.87z
	 M948.81,93.49c0,0-47.62,12.16-54.06,15.66c-6.44,3.51-23.49,10.86-15.92,28.55c8.19,19.13,47.46,3.82,56.84-3.54
	c9.38-7.36,9.11-15.62,11.37-26.78L948.81,93.49z"/>
</svg>
