<?xml version="1.0" encoding="iso-8859-1"?>
<!-- Generator: Adobe Illustrator 19.0.0, SVG Export Plug-In . SVG Version: 6.00 Build 0)  -->
<svg version="1.1" id="Capa_1" xmlns="http://www.w3.org/2000/svg" xmlns:xlink="http://www.w3.org/1999/xlink" x="0px" y="0px"
	 viewBox="0 0 512 512" style="enable-background:new 0 0 512 512;" xml:space="preserve">
<g>
	<g>
		<path d="M482,54H30C13.458,54,0,67.458,0,84v344c0,16.542,13.458,30,30,30h452c16.542,0,30-13.458,30-30V84
			C512,67.458,498.542,54,482,54z M492,428c0,5.514-4.486,10-10,10H30c-5.514,0-10-4.486-10-10V84c0-5.514,4.486-10,10-10h452
			c5.514,0,10,4.486,10,10V428z"/>
	</g>
</g>
<g>
	<g>
		<path d="M446.331,189.291h-88.667c-5.523,0-10,4.477-10,10v36.286c0.001,5.524,4.478,10.001,10.001,10.001h28.462
			c4.744,0,8.716-3.303,9.742-7.735h3.424c-13.836,21.31-26.256,50.238-26.256,78.771c0,5.523,4.477,10,10,10h35.193
			c5.523,0,10-4.477,10-10c0-28.435,10.317-61.495,26.284-84.223c1.183-1.684,1.817-3.691,1.817-5.749v-27.351
			C456.331,193.768,451.854,189.291,446.331,189.291z M436.332,223.548c-15.576,23.338-25.798,54.126-27.757,83.066h-14.924
			c3.176-26.66,18.18-54.743,33.064-72.306c2.518-2.972,3.082-7.135,1.444-10.669c-1.637-3.534-5.178-5.796-9.073-5.796h-32.958
			c-4.744,0-8.716,3.303-9.742,7.735h-8.72v-16.286h68.666V223.548z"/>
	</g>
</g>
<g>
	<g>
		<path d="M300.333,189.291h-88.667c-5.523,0-10,4.477-10,10v36.286c0,5.523,4.477,10,10,10h28.462c4.744,0,8.716-3.303,9.742-7.735
			h3.425c-13.836,21.31-26.256,50.238-26.256,78.771c0,5.524,4.477,10.001,10,10.001h35.193c5.523,0,10-4.477,10-10
			c0-28.436,10.317-61.496,26.284-84.223c1.183-1.684,1.817-3.691,1.817-5.749v-27.351
			C310.333,193.768,305.856,189.291,300.333,189.291z M290.333,223.548c-15.576,23.337-25.798,54.126-27.757,83.066h-14.924
			c3.176-26.659,18.18-54.743,33.064-72.306c2.518-2.972,3.082-7.135,1.444-10.669c-1.637-3.534-5.178-5.796-9.073-5.796h-32.959
			c-4.744,0-8.716,3.303-9.742,7.735h-8.72v-16.286h68.667V223.548z"/>
	</g>
</g>
<g>
	<g>
		<path d="M154.335,189.292H65.669c-5.523,0-10,4.477-10,10v36.286c0,5.523,4.477,10,10,10h28.462c4.744,0,8.716-3.303,9.742-7.735
			h3.425c-13.836,21.31-26.257,50.238-26.257,78.771c0,5.523,4.477,10,10,10h35.194c5.523,0,10-4.477,10-10
			c0-28.436,10.317-61.495,26.283-84.223c1.183-1.684,1.817-3.691,1.817-5.749v-27.351
			C164.335,193.769,159.858,189.292,154.335,189.292z M144.336,223.548L144.336,223.548c-15.577,23.337-25.798,54.126-27.758,83.066
			h-14.925c3.176-26.66,18.18-54.743,33.065-72.306c2.519-2.972,3.082-7.135,1.444-10.669c-1.637-3.534-5.178-5.796-9.073-5.796
			H94.131c-4.744,0-8.716,3.303-9.742,7.735h-8.72v-16.286h68.667V223.548z"/>
	</g>
</g>
<g>
	<g>
		<path d="M465,117H294.14c-5.523,0-10,4.477-10,10s4.477,10,10,10h24.855v238H192.991V137h28.676c5.523,0,10-4.477,10-10
			s-4.477-10-10-10H47c-11.028,0-20,8.972-20,20v238c0,11.028,8.972,20,20,20h418c11.028,0,20-8.972,20-20V137
			C485,125.972,476.028,117,465,117z M172.991,375H47V137h125.991V375z M465,375H338.995V137H465V375z"/>
	</g>
</g>
<g>
	<g>
		<path d="M256.39,117c-5.523,0-10,4.477-10,10s4.477,10,10,10h0.095c5.523,0,9.952-4.477,9.952-10S261.913,117,256.39,117z"/>
	</g>
</g>
<g>
</g>
<g>
</g>
<g>
</g>
<g>
</g>
<g>
</g>
<g>
</g>
<g>
</g>
<g>
</g>
<g>
</g>
<g>
</g>
<g>
</g>
<g>
</g>
<g>
</g>
<g>
</g>
<g>
</g>
</svg>
