<?xml version="1.0" encoding="utf-8"?>
<svg id="Layer_1" data-name="Layer 1" xmlns="http://www.w3.org/2000/svg" viewBox="0 0 465.09 157.49"><defs><style>.cls-1{fill:#fff;}</style></defs><title>gaming-calder-icon</title><path class="cls-1" d="M59.6,342.8a2,2,0,0,1-2-2.33c10.84-65,39-99.17,55.48-114.14a41.66,41.66,0,0,1-9,1c-8,0-15.16-2.09-22.1-4.11-5.87-1.71-11.42-3.32-16.61-3.32-7,0-16.3,2.65-26,23.29a2,2,0,0,1-1.81,1.15H27a2,2,0,0,1-2-2V189a2,2,0,0,1,2-2H37.78a2,2,0,0,1,2,2v6.27c12.25-6.82,22.63-10,32.44-10,9.56,0,17.32,3.12,24.82,6.14,7.68,3.09,15.62,6.29,25.81,6.29,10.5,0,22.29-3.43,36-10.48a2,2,0,0,1,2.41.45l6.76,7.61a2,2,0,0,1-.11,2.78C123,241,122.47,339.81,122.47,340.8a2,2,0,0,1-2,2Z" transform="translate(-25.05 -185.31)"/><path class="cls-1" d="M220.39,342.8a2,2,0,0,1-2-2.33c10.84-65,39-99.17,55.48-114.14a41.67,41.67,0,0,1-9,1c-8,0-15.16-2.09-22.1-4.11-5.87-1.71-11.42-3.32-16.61-3.32-7,0-16.3,2.65-26,23.29a2,2,0,0,1-1.81,1.15H187.84a2,2,0,0,1-2-2V189a2,2,0,0,1,2-2h10.73a2,2,0,0,1,2,2v6.27c12.25-6.82,22.63-10,32.44-10,9.56,0,17.32,3.12,24.82,6.14,7.68,3.09,15.63,6.29,25.81,6.29,10.5,0,22.29-3.43,36-10.48a2,2,0,0,1,2.41.45l6.76,7.61a2,2,0,0,1-.11,2.78C283.78,241,283.26,339.81,283.26,340.8a2,2,0,0,1-2,2Z" transform="translate(-25.05 -185.31)"/><path class="cls-1" d="M381.19,342.8a2,2,0,0,1-2-2.33c10.84-65,39-99.18,55.48-114.14a41.64,41.64,0,0,1-9,1c-8,0-15.16-2.09-22.1-4.11-5.87-1.71-11.42-3.32-16.61-3.32-7,0-16.3,2.65-26,23.29a2,2,0,0,1-1.81,1.15H348.64a2,2,0,0,1-2-2V189a2,2,0,0,1,2-2h10.73a2,2,0,0,1,2,2v6.27c12.25-6.82,22.63-10,32.44-10,9.56,0,17.32,3.12,24.82,6.14,7.68,3.09,15.63,6.29,25.81,6.29,10.5,0,22.29-3.43,36-10.48a2,2,0,0,1,2.41.45l6.76,7.61a2,2,0,0,1-.11,2.78C444.58,241,444.06,339.81,444.06,340.8a2,2,0,0,1-2,2Z" transform="translate(-25.05 -185.31)"/></svg>